<?xml version="1.0" encoding="UTF-8" standalone="no"?>
<!-- Created with Inkscape (http://www.inkscape.org/) -->

<svg
   version="1.1"
   id="svg2"
   xml:space="preserve"
   width="3333.3281"
   height="3333.3281"
   viewBox="0 0 3333.3282 3333.3282"
   sodipodi:docname="cb63d2a6d54049e5f40918d0fa450ee8.eps"
   xmlns:inkscape="http://www.inkscape.org/namespaces/inkscape"
   xmlns:sodipodi="http://sodipodi.sourceforge.net/DTD/sodipodi-0.dtd"
   xmlns="http://www.w3.org/2000/svg"
   xmlns:svg="http://www.w3.org/2000/svg"><defs
     id="defs6" /><sodipodi:namedview
     id="namedview4"
     pagecolor="#ffffff"
     bordercolor="#666666"
     borderopacity="1.0"
     inkscape:pageshadow="2"
     inkscape:pageopacity="0.0"
     inkscape:pagecheckerboard="0" /><g
     id="g8"
     inkscape:groupmode="layer"
     inkscape:label="ink_ext_XXXXXX"
     transform="matrix(1.3333333,0,0,-1.3333333,0,3333.3282)"><g
       id="g10"
       transform="scale(0.1)"><g
         id="g12"
         transform="scale(1.53374)"><path
           d="m 2037.5,16300 h 12225 c 1123.8,0 2037.5,-913.7 2037.5,-2037.5 V 2037.5 C 16300,913.712 15386.3,0 14262.5,0 H 2037.5 C 913.694,0 0,913.712 0,2037.5 v 12225 C 0,15386.3 913.694,16300 2037.5,16300"
           style="fill:#519cdb;fill-opacity:1;fill-rule:nonzero;stroke:none"
           id="path14" /></g><g
         id="g16"
         transform="scale(1.36597)"><path
           d="m 12869.4,16300 c 0,0 0,-57.2 0,0 -400.3,-686.2 -457.5,-1543.9 -629,-2287.3 v -57.2 c -57.2,-800.5 -343.2,-1658.3 -171.6,-2458.8 v -57.2 l 114.4,-114.4 c 0,0 57.2,0 114.3,57.2 114.4,57.2 114.4,171.5 171.6,343.1 0,0 0,57.2 57.1,57.2 v 57.2 c 343.2,1372.3 571.9,2801.9 457.5,4174.3 0,57.2 0,114.4 -114.3,171.5 l -114.5,114.4 h 114.5 c 57.1,0 57.1,0 0,0 0,0 57.1,0 0,0"
           style="fill:#519cdb;fill-opacity:1;fill-rule:nonzero;stroke:none"
           id="path18" /></g><g
         id="g20"
         transform="scale(1.366)"><path
           d="m 16071.2,15613.5 c -571.8,-285.9 -914.8,-972.1 -1315.1,-1543.9 v -114.4 c -514.7,-914.9 -1200.8,-1829.8 -1258,-2916.2 0,-171.6 114.3,-228.8 171.5,-285.9 114.4,0 286,57.1 343.1,114.3 914.9,1315.2 1658.3,2801.9 2230.1,4288.6 57.2,114.4 57.2,114.4 0,171.6 0,228.7 -114.4,285.9 -171.6,285.9 v 0"
           style="fill:#519cdb;fill-opacity:1;fill-rule:nonzero;stroke:none"
           id="path22" /></g><g
         id="g24"
         transform="scale(1.359)"><path
           d="m 6874,15265.7 c -114.96,0 -229.9,-114.9 -344.86,-114.9 -344.86,-115 -574.76,-459.8 -632.24,-804.7 -114.96,-344.8 -57.48,-804.6 0,-1207 57.48,-402.3 114.96,-862.1 229.9,-1207 57.48,-287.4 114.96,-402.3 172.42,-517.3 v -57.4 c 0,-57.5 0,0 -57.48,-57.5 v -57.5 c 0,0 -57.48,-57.5 -114.95,-57.5 -57.49,0 -114.96,0 -172.43,57.5 -57.48,0 -114.96,57.5 -114.96,57.5 0,0 -57.47,0 -57.47,57.5 l -57.49,114.9 c -57.47,115 -114.96,229.9 -172.42,402.4 -114.96,344.8 -344.85,689.7 -517.27,1092 -172.43,344.9 -459.8,689.7 -689.72,919.6 -114.95,115 -287.38,229.9 -459.81,287.4 -172.41,57.5 -344.85,0 -459.79,-57.5 -402.34,-229.9 -632.24,-574.7 -689.72,-977.1 -114.95,-402.3 -57.48,-804.6 0,-1207 57.48,-402.3 172.42,-689.7 229.9,-977.1 0,-115 57.48,-229.9 57.48,-287.4 0,-57.4 0,-172.4 -57.48,-229.8 -57.48,-229.9 -229.9,-632.28 -229.9,-632.28 0,0 -3161.164,-8334 3563.51,-7759.23 57.48,0 172.42,57.46 229.91,57.46 1321.94,287.35 2586.4,689.7 3678.47,1092.06 229.9,114.93 517.3,229.87 804.6,344.81 632.2,287.42 1437,689.77 2241.6,1092.05 804.6,402.36 1494.3,862.18 2069.1,1379.4 574.7,459.82 977.1,1034.58 862.2,1551.87 -115,862.18 -689.7,1494.41 -1437,1954.16 -747.1,517.3 -1724.2,804.7 -2643.8,1092.1 -919.7,229.8 -1839.3,459.8 -2528.95,574.7 -344.89,57.5 -689.7,57.5 -862.18,115 -57.47,0 -114.94,0 -114.94,57.5 h -57.47 c 0,0 -57.46,0 -57.46,57.4 v 57.5 517.3 c 0,402.3 -57.47,977.1 -115.01,1551.9 -114.94,517.2 -229.88,1034.5 -517.22,1379.4 -172.48,229.9 -402.36,344.8 -689.74,344.8 -114.96,0 -229.91,57.5 -287.38,0 h 0.05"
           style="fill:#519cdb;fill-opacity:1;fill-rule:nonzero;stroke:none"
           id="path26" /></g><g
         id="g28"
         transform="scale(1.2551)"><path
           d="m 9708.53,16300 c -673.65,-236.7 -1165.24,-437 -1165.24,-1711.4 v -619 l 400.61,72.8 v 528 c -18.25,873.9 218.46,1056 801.05,1310.9 0,163.8 0,309.5 -36.42,418.7"
           style="fill:#ffffff;fill-opacity:1;fill-rule:nonzero;stroke:none"
           id="path30" /></g><g
         id="g32"
         transform="scale(1.29155)"><path
           d="m 10566.9,16105.4 c 17.7,-123.9 53,-247.7 53,-389.3 1026.2,141.6 1008.5,-283 1008.5,-1150 v -318.5 l 389.2,70.8 v 247.7 c 0,1362.3 -212.3,1733.9 -1450.7,1539.3 v 0"
           style="fill:#ffffff;fill-opacity:1;fill-rule:nonzero;stroke:none"
           id="path34" /></g><g
         id="g36"
         transform="scale(1.39109)"><path
           d="M 6081.93,12275.5 V 13951 c -16.43,1034.9 525.66,1347 1511.28,1576.9 1478.41,345 1576.96,-607.7 1576.96,-1215.5 v -1412.7 l 361.38,65.7 v 1314.1 c 0,1149.9 -361.38,2020.5 -2020.51,1642.7 -887.02,-197.1 -1790.49,-427.1 -1790.49,-1938.4 v -1774 l 361.39,65.7 h -0.01"
           style="fill:#ffffff;fill-opacity:1;fill-rule:nonzero;stroke:none"
           id="path38" /></g><g
         id="g40"
         transform="scale(1.27748)"><path
           d="M 11363,8591.14 H 8322.1 v 2200.16 l 3040.9,447.2 z m 0,-3112.46 -3040.9,447.21 V 8287.03 H 11363 Z M 8018.06,8591.14 H 5603.2 v 1842.46 l 2414.86,339.8 z m 0,-2647.32 -2414.86,339.81 v 2003.4 H 8018.06 Z M 14135.6,14386.7 3259.94,12204.4 V 4298.15 L 14135.6,2115.81 16300,2902.91 V 13581.8 l -2164.4,804.9 v 0"
           style="fill:#ffffff;fill-opacity:1;fill-rule:nonzero;stroke:none"
           id="path42" /></g></g></g></svg>
